{
	"patcher" : 	{
		"fileversion" : 1,
		"appversion" : 		{
			"major" : 9,
			"minor" : 0,
			"revision" : 3,
			"architecture" : "x64",
			"modernui" : 1
		}
,
		"classnamespace" : "box",
		"rect" : [ -1522.0, 138.0, 1071.0, 780.0 ],
		"gridsize" : [ 15.0, 15.0 ],
		"boxes" : [ 			{
				"box" : 				{
					"id" : "obj-35",
					"maxclass" : "newobj",
					"numinlets" : 2,
					"numoutlets" : 1,
					"outlettype" : [ "signal" ],
					"patching_rect" : [ 910.0, 232.0, 44.0, 22.0 ],
					"text" : "delay~"
				}

			}
, 			{
				"box" : 				{
					"id" : "obj-32",
					"maxclass" : "newobj",
					"numinlets" : 1,
					"numoutlets" : 1,
					"outlettype" : [ "" ],
					"patching_rect" : [ 392.5, 224.0, 61.0, 22.0 ],
					"text" : "sprintf %s"
				}

			}
, 			{
				"box" : 				{
					"id" : "obj-27",
					"maxclass" : "newobj",
					"numinlets" : 1,
					"numoutlets" : 3,
					"outlettype" : [ "bang", "apply welch", "" ],
					"patching_rect" : [ 340.0, 191.0, 106.0, 22.0 ],
					"text" : "t b \"apply welch\" s"
				}

			}
, 			{
				"box" : 				{
					"id" : "obj-26",
					"maxclass" : "newobj",
					"numinlets" : 1,
					"numoutlets" : 1,
					"outlettype" : [ "bang" ],
					"patching_rect" : [ 165.0, 258.0, 22.0, 22.0 ],
					"text" : "t b"
				}

			}
, 			{
				"box" : 				{
					"id" : "obj-25",
					"maxclass" : "message",
					"numinlets" : 2,
					"numoutlets" : 1,
					"outlettype" : [ "" ],
					"patching_rect" : [ 340.0, 157.0, 104.0, 22.0 ],
					"text" : "duplicate nextBuff"
				}

			}
, 			{
				"box" : 				{
					"id" : "obj-18",
					"maxclass" : "newobj",
					"numinlets" : 1,
					"numoutlets" : 2,
					"outlettype" : [ "float", "bang" ],
					"patching_rect" : [ 410.0, 84.5, 126.0, 22.0 ],
					"text" : "buffer~ nextBuff 350 2"
				}

			}
, 			{
				"box" : 				{
					"id" : "obj-16",
					"maxclass" : "ezdac~",
					"numinlets" : 2,
					"numoutlets" : 0,
					"patching_rect" : [ 779.0, 569.0, 45.0, 45.0 ]
				}

			}
, 			{
				"box" : 				{
					"id" : "obj-12",
					"maxclass" : "newobj",
					"numinlets" : 1,
					"numoutlets" : 1,
					"outlettype" : [ "start" ],
					"patching_rect" : [ 779.0, 408.0, 39.0, 22.0 ],
					"text" : "t start"
				}

			}
, 			{
				"box" : 				{
					"id" : "obj-11",
					"maxclass" : "newobj",
					"numinlets" : 1,
					"numoutlets" : 2,
					"outlettype" : [ "signal", "bang" ],
					"patching_rect" : [ 779.0, 475.0, 79.0, 22.0 ],
					"text" : "play~ curBuff"
				}

			}
, 			{
				"box" : 				{
					"args" : [ "@module", 2 ],
					"bgmode" : 0,
					"border" : 0,
					"clickthrough" : 0,
					"enablehscroll" : 0,
					"enablevscroll" : 0,
					"id" : "obj-10",
					"lockeddragscroll" : 0,
					"lockedsize" : 0,
					"maxclass" : "bpatcher",
					"name" : "demosound.maxpat",
					"numinlets" : 0,
					"numoutlets" : 1,
					"offset" : [ 0.0, 0.0 ],
					"outlettype" : [ "signal" ],
					"patching_rect" : [ 566.0, 55.0, 230.0, 95.0 ],
					"viewvisibility" : 1
				}

			}
, 			{
				"box" : 				{
					"id" : "obj-50",
					"maxclass" : "newobj",
					"numinlets" : 1,
					"numoutlets" : 2,
					"outlettype" : [ "bang", "bang" ],
					"patching_rect" : [ 693.0, 239.0, 42.0, 22.0 ],
					"text" : "edge~"
				}

			}
, 			{
				"box" : 				{
					"id" : "obj-48",
					"maxclass" : "newobj",
					"numinlets" : 3,
					"numoutlets" : 1,
					"outlettype" : [ "signal" ],
					"patching_rect" : [ 566.0, 239.0, 99.0, 22.0 ],
					"text" : "poke~ nextBuff 1"
				}

			}
, 			{
				"box" : 				{
					"id" : "obj-45",
					"maxclass" : "newobj",
					"numinlets" : 2,
					"numoutlets" : 1,
					"outlettype" : [ "signal" ],
					"patching_rect" : [ 606.0, 170.0, 112.0, 22.0 ],
					"text" : "count~ 0 15435 1 1"
				}

			}
, 			{
				"box" : 				{
					"id" : "obj-43",
					"maxclass" : "button",
					"numinlets" : 1,
					"numoutlets" : 1,
					"outlettype" : [ "bang" ],
					"parameter_enable" : 0,
					"patching_rect" : [ 693.0, 302.0, 24.0, 24.0 ]
				}

			}
, 			{
				"box" : 				{
					"id" : "obj-20",
					"maxclass" : "newobj",
					"numinlets" : 1,
					"numoutlets" : 2,
					"outlettype" : [ "float", "bang" ],
					"patching_rect" : [ 340.0, 258.0, 120.0, 22.0 ],
					"text" : "buffer~ curBuff 350 2"
				}

			}
, 			{
				"box" : 				{
					"id" : "obj-15",
					"maxclass" : "newobj",
					"numinlets" : 1,
					"numoutlets" : 1,
					"outlettype" : [ "" ],
					"patching_rect" : [ 165.0, 292.0, 53.0, 22.0 ],
					"saved_object_attributes" : 					{
						"filename" : "n4mjs.js",
						"parameter_enable" : 0
					}
,
					"text" : "js n4mjs"
				}

			}
, 			{
				"box" : 				{
					"bgmode" : 0,
					"border" : 0,
					"clickthrough" : 0,
					"enablehscroll" : 0,
					"enablevscroll" : 0,
					"id" : "obj-14",
					"lockeddragscroll" : 0,
					"lockedsize" : 0,
					"maxclass" : "bpatcher",
					"name" : "n4m.monitor.maxpat",
					"numinlets" : 1,
					"numoutlets" : 1,
					"offset" : [ 0.0, 0.0 ],
					"outlettype" : [ "bang" ],
					"patching_rect" : [ 172.0, 451.0, 400.0, 220.0 ],
					"viewvisibility" : 1
				}

			}
, 			{
				"box" : 				{
					"id" : "obj-13",
					"maxclass" : "message",
					"numinlets" : 2,
					"numoutlets" : 1,
					"outlettype" : [ "" ],
					"patching_rect" : [ 169.0, 326.0, 180.0, 22.0 ],
					"text" : "script npm install ws express ejs"
				}

			}
, 			{
				"box" : 				{
					"id" : "obj-8",
					"maxclass" : "newobj",
					"numinlets" : 1,
					"numoutlets" : 1,
					"outlettype" : [ "" ],
					"patching_rect" : [ 68.0, 326.0, 85.0, 22.0 ],
					"text" : "prepend script"
				}

			}
, 			{
				"box" : 				{
					"id" : "obj-7",
					"maxclass" : "message",
					"numinlets" : 2,
					"numoutlets" : 1,
					"outlettype" : [ "" ],
					"patching_rect" : [ 105.0, 292.0, 32.0, 22.0 ],
					"text" : "start"
				}

			}
, 			{
				"box" : 				{
					"id" : "obj-6",
					"maxclass" : "message",
					"numinlets" : 2,
					"numoutlets" : 1,
					"outlettype" : [ "" ],
					"patching_rect" : [ 68.0, 292.0, 31.0, 22.0 ],
					"text" : "stop"
				}

			}
, 			{
				"box" : 				{
					"id" : "obj-4",
					"maxclass" : "toggle",
					"numinlets" : 1,
					"numoutlets" : 1,
					"outlettype" : [ "int" ],
					"parameter_enable" : 0,
					"patching_rect" : [ 68.0, 223.0, 24.0, 24.0 ],
					"svg" : ""
				}

			}
, 			{
				"box" : 				{
					"id" : "obj-2",
					"maxclass" : "newobj",
					"numinlets" : 3,
					"numoutlets" : 3,
					"outlettype" : [ "bang", "bang", "" ],
					"patching_rect" : [ 68.0, 258.0, 44.0, 22.0 ],
					"text" : "sel 0 1"
				}

			}
, 			{
				"box" : 				{
					"id" : "obj-1",
					"maxclass" : "newobj",
					"numinlets" : 1,
					"numoutlets" : 2,
					"outlettype" : [ "", "" ],
					"patching_rect" : [ 68.0, 376.0, 123.0, 22.0 ],
					"saved_object_attributes" : 					{
						"autostart" : 0,
						"defer" : 0,
						"node_bin_path" : "",
						"npm_bin_path" : "",
						"watch" : 0
					}
,
					"text" : "node.script n4mscript",
					"textfile" : 					{
						"filename" : "n4mscript.js",
						"flags" : 0,
						"embed" : 0,
						"autowatch" : 1
					}

				}

			}
 ],
		"lines" : [ 			{
				"patchline" : 				{
					"destination" : [ "obj-14", 0 ],
					"source" : [ "obj-1", 1 ]
				}

			}
, 			{
				"patchline" : 				{
					"destination" : [ "obj-48", 0 ],
					"source" : [ "obj-10", 0 ]
				}

			}
, 			{
				"patchline" : 				{
					"destination" : [ "obj-16", 1 ],
					"order" : 0,
					"source" : [ "obj-11", 0 ]
				}

			}
, 			{
				"patchline" : 				{
					"destination" : [ "obj-16", 0 ],
					"order" : 1,
					"source" : [ "obj-11", 0 ]
				}

			}
, 			{
				"patchline" : 				{
					"destination" : [ "obj-11", 0 ],
					"source" : [ "obj-12", 0 ]
				}

			}
, 			{
				"patchline" : 				{
					"destination" : [ "obj-1", 0 ],
					"source" : [ "obj-13", 0 ]
				}

			}
, 			{
				"patchline" : 				{
					"destination" : [ "obj-1", 0 ],
					"source" : [ "obj-15", 0 ]
				}

			}
, 			{
				"patchline" : 				{
					"destination" : [ "obj-6", 0 ],
					"source" : [ "obj-2", 0 ]
				}

			}
, 			{
				"patchline" : 				{
					"destination" : [ "obj-7", 0 ],
					"source" : [ "obj-2", 1 ]
				}

			}
, 			{
				"patchline" : 				{
					"destination" : [ "obj-27", 0 ],
					"source" : [ "obj-25", 0 ]
				}

			}
, 			{
				"patchline" : 				{
					"destination" : [ "obj-15", 0 ],
					"source" : [ "obj-26", 0 ]
				}

			}
, 			{
				"patchline" : 				{
					"destination" : [ "obj-20", 0 ],
					"source" : [ "obj-27", 2 ]
				}

			}
, 			{
				"patchline" : 				{
					"destination" : [ "obj-26", 0 ],
					"source" : [ "obj-27", 0 ]
				}

			}
, 			{
				"patchline" : 				{
					"destination" : [ "obj-32", 0 ],
					"source" : [ "obj-27", 1 ]
				}

			}
, 			{
				"patchline" : 				{
					"destination" : [ "obj-20", 0 ],
					"source" : [ "obj-32", 0 ]
				}

			}
, 			{
				"patchline" : 				{
					"destination" : [ "obj-2", 0 ],
					"source" : [ "obj-4", 0 ]
				}

			}
, 			{
				"patchline" : 				{
					"destination" : [ "obj-12", 0 ],
					"order" : 0,
					"source" : [ "obj-43", 0 ]
				}

			}
, 			{
				"patchline" : 				{
					"destination" : [ "obj-25", 0 ],
					"order" : 1,
					"source" : [ "obj-43", 0 ]
				}

			}
, 			{
				"patchline" : 				{
					"destination" : [ "obj-48", 1 ],
					"order" : 1,
					"source" : [ "obj-45", 0 ]
				}

			}
, 			{
				"patchline" : 				{
					"destination" : [ "obj-50", 0 ],
					"order" : 0,
					"source" : [ "obj-45", 0 ]
				}

			}
, 			{
				"patchline" : 				{
					"destination" : [ "obj-43", 0 ],
					"source" : [ "obj-50", 0 ]
				}

			}
, 			{
				"patchline" : 				{
					"destination" : [ "obj-8", 0 ],
					"source" : [ "obj-6", 0 ]
				}

			}
, 			{
				"patchline" : 				{
					"destination" : [ "obj-8", 0 ],
					"source" : [ "obj-7", 0 ]
				}

			}
, 			{
				"patchline" : 				{
					"destination" : [ "obj-1", 0 ],
					"source" : [ "obj-8", 0 ]
				}

			}
 ],
		"originid" : "pat-693",
		"parameters" : 		{
			"obj-10::obj-21::obj-6" : [ "live.tab[3]", "live.tab[1]", 0 ],
			"obj-10::obj-35" : [ "[5]", "Level", 0 ],
			"parameterbanks" : 			{
				"0" : 				{
					"index" : 0,
					"name" : "",
					"parameters" : [ "-", "-", "-", "-", "-", "-", "-", "-" ]
				}

			}
,
			"inherited_shortname" : 1
		}
,
		"dependency_cache" : [ 			{
				"name" : "demosound.maxpat",
				"bootpath" : "C74:/help/msp",
				"type" : "JSON",
				"implicit" : 1
			}
, 			{
				"name" : "fit_jweb_to_bounds.js",
				"bootpath" : "C74:/packages/Node for Max/patchers/debug-monitor",
				"type" : "TEXT",
				"implicit" : 1
			}
, 			{
				"name" : "interfacecolor.js",
				"bootpath" : "C74:/interfaces",
				"type" : "TEXT",
				"implicit" : 1
			}
, 			{
				"name" : "n4m.monitor.maxpat",
				"bootpath" : "C74:/packages/Node for Max/patchers/debug-monitor",
				"type" : "JSON",
				"implicit" : 1
			}
, 			{
				"name" : "n4mjs.js",
				"bootpath" : "D:/Web Stuff/maxwebstream",
				"patcherrelativepath" : ".",
				"type" : "TEXT",
				"implicit" : 1
			}
, 			{
				"name" : "n4mscript.js",
				"bootpath" : "D:/Web Stuff/maxwebstream",
				"patcherrelativepath" : ".",
				"type" : "TEXT",
				"implicit" : 1
			}
, 			{
				"name" : "random.svg",
				"bootpath" : "C74:/media/max/picts/m4l-picts",
				"type" : "svg",
				"implicit" : 1
			}
, 			{
				"name" : "resize_n4m_monitor_patcher.js",
				"bootpath" : "C74:/packages/Node for Max/patchers/debug-monitor",
				"type" : "TEXT",
				"implicit" : 1
			}
, 			{
				"name" : "saw.svg",
				"bootpath" : "C74:/media/max/picts/m4l-picts",
				"type" : "svg",
				"implicit" : 1
			}
, 			{
				"name" : "sine.svg",
				"bootpath" : "C74:/media/max/picts/m4l-picts",
				"type" : "svg",
				"implicit" : 1
			}
, 			{
				"name" : "square.svg",
				"bootpath" : "C74:/media/max/picts/m4l-picts",
				"type" : "svg",
				"implicit" : 1
			}
 ],
		"autosave" : 0
	}

}
